PathFileType	4	(X/Y/Z)	HSS_walk1.trc
DataRate	CameraRate	NumFrames	NumMarkers	Units	OrigDataRate	OrigDataStartFrame	OrigNumFrames
120.0	120.0	4	44	mm	120.0	253	1008
Frame#	Time		R.Shoulder		Offset		L.Shoulder		R.Elbow		R.Wrist.Radial		R.Wrist		R.Hand		L.Elbow		L.Wrist.Radial		L.Wrist		L.Hand		R.Hip		V.Sacral		L.PSIS		L.Hip		R.Thigh.Upper		R.Thigh.Front		R.Thigh.Rear		X.Shell.Lower.Thigh.Right		R.Knee.Lateral		R.Shank.Upper		R.Shank.Front		R.Shank.Rear		X.Shell.Lower.Shank.Right		R.Ankle.Lateral		R.Heel		R.Toe		L.Thigh.Upper		L.Thigh.Front		L.Thigh.Rear		X.Shell.Lower.Thigh.Left		L.Knee.Lateral		L.Shank.Upper		L.Shank.Front		L.Shank.Rear		X.Shell.Lower.Shank.Left		L.Ankle.Lateral		L.Heel		L.Toe		R.Troc		L.Troc		R.PSIS		L.ASIS		R.ASIS
			X1	Y1	Z1	X2	Y2	Z2	X3	Y3	Z3	X4	Y4	Z4	X5	Y5	Z5	X6	Y6	Z6	X7	Y7	Z7	X8	Y8	Z8	X9	Y9	Z9	X10	Y10	Z10	X11	Y11	Z11	X12	Y12	Z12	X13	Y13	Z13	X14	Y14	Z14	X15	Y15	Z15	X16	Y16	Z16	X17	Y17	Z17	X18	Y18	Z18	X19	Y19	Z19	X20	Y20	Z20	X21	Y21	Z21	X22	Y22	Z22	X23	Y23	Z23	X24	Y24	Z24	X25	Y25	Z25	X26	Y26	Z26	X27	Y27	Z27	X28	Y28	Z28	X29	Y29	Z29	X30	Y30	Z30	X31	Y31	Z31	X32	Y32	Z32	X33	Y33	Z33	X34	Y34	Z34	X35	Y35	Z35	X36	Y36	Z36	X37	Y37	Z37	X38	Y38	Z38	X39	Y39	Z39	X40	Y40	Z40	X41	Y41	Z41	X42	Y42	Z42	X43	Y43	Z43	X44	Y44	Z44

253	2.10000	-1636.02893	1465.35498	-18.58933	-1763.49036	1394.36719	-319.66458	-1620.52673	1478.22485	-394.87320	-1671.53003	1097.53894	27.06113	-1530.04883	885.86346	-14.17704	-1555.34204	874.52606	53.77773	-1507.17175	803.78119	36.66362	-1644.16516	1112.59961	-447.16418	-1511.30652	901.50885	-383.34662	-1525.13220	901.32343	-454.46960	-1484.57727	828.18976	-427.06180	-1607.30579	1033.34680	-55.25191	-1719.78259	1018.40106	-206.71564	-1718.89453	1024.53955	-248.14163	-1599.99451	1031.47595	-353.94241	-1577.69678	690.62341	-19.17027	-1547.44678	651.83160	-36.14910	-1603.46960	654.17358	-9.88792	-1578.74536	619.64252	-28.73258	-1651.00830	516.08868	-38.77333	-1674.53503	371.19122	12.48204	-1649.95129	326.14520	-11.21864	-1708.37927	336.01242	1.83149	-1688.06384	294.84229	-7.35145	-1708.98389	71.02077	-54.07174	-1753.37744	32.70502	-101.68585	-1554.35278	32.14451	-52.97010	-1563.32434	689.61359	-377.29944	-1547.94727	639.09473	-353.87155	-1594.81396	655.99286	-392.39322	-1572.38586	619.42096	-379.09549	-1650.02930	507.75137	-362.48962	-1691.34436	309.46576	-407.76123	-1664.31628	285.22842	-390.56876	-1723.21069	271.45483	-394.61542	-1700.94006	239.86314	-396.61786	-1689.98828	72.85014	-351.66763	-1744.87537	34.14799	-305.95279	-1544.98303	31.73899	-342.83023	-1593.77515	878.15448	-19.23210	-1593.52771	889.00555	-387.54947	-1721.35718	1022.08215	-162.21420	-1531.37585	995.28302	-312.37027	-1541.80945	996.68677	-85.47590
254	2.10833	-1636.15637	1465.36658	-18.63582	-1763.61523	1394.30933	-319.72491	-1620.68835	1478.19958	-394.94208	-1671.59448	1097.57629	27.07591	-1529.67847	885.99579	-13.99013	-1555.36853	874.54968	53.85908	-1507.19116	803.81659	36.69462	-1644.23535	1112.57581	-447.19046	-1511.30701	901.52399	-383.41434	-1525.17053	901.29968	-454.53217	-1484.61987	828.20227	-427.15765	-1607.26013	1033.39001	-55.25074	-1719.81787	1018.39502	-206.72893	-1718.96619	1024.52698	-248.14543	-1600.08533	1031.54712	-353.92987	-1577.67456	690.62000	-19.22459	-1547.45813	651.80798	-36.18587	-1603.47266	654.17505	-9.90674	-1578.74854	619.67151	-28.74855	-1651.01282	516.07343	-38.77082	-1674.51636	371.16818	12.44744	-1649.96130	326.16855	-11.18296	-1708.39966	336.02814	1.88368	-1688.08142	294.85187	-7.37989	-1708.96802	71.00500	-54.09129	-1753.36414	32.69266	-101.69798	-1554.36255	32.14045	-52.95391	-1563.38525	689.62585	-377.30756	-1547.98315	639.11523	-353.84595	-1594.86438	656.03363	-392.43033	-1572.41919	619.41589	-379.14136	-1650.07361	507.74283	-362.53638	-1691.39929	309.48807	-407.73712	-1664.32361	285.21960	-390.53876	-1723.27075	271.43491	-394.59213	-1700.94897	239.86414	-396.66055	-1690.00549	72.81723	-351.65015	-1744.88025	34.13697	-305.97116	-1544.97595	31.72476	-342.85614	-1593.84460	878.16675	-19.21518	-1593.58044	889.01093	-387.58337	-1721.41748	1022.07483	-162.22420	-1531.47046	995.26288	-312.37061	-1541.94238	996.64539	-85.45096
255	2.11667	-1636.31689	1465.39465	-18.67476	-1763.72058	1394.25952	-319.75903	-1620.85193	1478.15894	-395.01013	-1671.66968	1097.61511	27.13459	-1529.72681	886.01892	-13.93560	-1555.43262	874.58539	53.93665	-1507.24365	803.85626	36.78650	-1644.29968	1112.55957	-447.23563	-1511.51794	901.43524	-383.52179	-1525.22205	901.32733	-454.60056	-1484.65686	828.19080	-427.23654	-1607.36511	1033.36658	-55.25533	-1719.84644	1018.38391	-206.74829	-1719.04187	1024.52649	-248.14030	-1600.12195	1031.53406	-353.95514	-1577.72815	690.61566	-19.19580	-1547.46838	651.76324	-36.15232	-1603.48804	654.07898	-9.81558	-1578.74988	619.67249	-28.74112	-1651.02246	516.06580	-38.82344	-1674.54138	371.18808	12.49567	-1649.94958	326.13522	-11.25363	-1708.40100	336.02084	1.90485	-1688.07703	294.84256	-7.36375	-1708.97864	71.01969	-54.07443	-1753.37109	32.68142	-101.69377	-1554.37451	32.15063	-52.97474	-1563.43213	689.60089	-377.31885	-1548.04651	639.13403	-353.91553	-1594.89990	656.01721	-392.43408	-1572.45361	619.40808	-379.14062	-1650.09583	507.73615	-362.51956	-1691.38354	309.44281	-407.74921	-1664.32971	285.20731	-390.52878	-1723.26709	271.40939	-394.60760	-1700.95728	239.85455	-396.69104	-1690.00098	72.83151	-351.62967	-1744.87402	34.14075	-305.98148	-1544.98071	31.74610	-342.89410	-1593.89685	878.16351	-19.23802	-1593.66650	889.04669	-387.57819	-1721.51794	1022.03595	-162.25502	-1531.54407	995.27759	-312.41693	-1541.96008	996.62128	-85.47186
256	2.12500	-1636.47546	1465.44727	-18.71682	-1763.83203	1394.20850	-319.78647	-1621.00940	1478.12732	-395.08536	-1671.73193	1097.66382	27.14557	-1529.45935	886.10950	-13.83995	-1555.48193	874.59454	53.98226	-1507.25964	803.88727	36.82285	-1644.35266	1112.51990	-447.25095	-1511.57080	901.45929	-383.66516	-1525.23267	901.32123	-454.65317	-1484.70532	828.15741	-427.27792	-1607.41333	1033.37854	-55.30902	-1719.93848	1018.38470	-206.75584	-1719.13452	1024.50977	-248.16037	-1600.10950	1031.53308	-353.96402	-1577.74731	690.64154	-19.21059	-1547.46277	651.86365	-36.22184	-1603.47864	654.15576	-9.93834	-1578.77612	619.65851	-28.76767	-1651.03308	516.07654	-38.82498	-1674.53979	371.15030	12.44762	-1649.96924	326.15201	-11.23258	-1708.38647	336.00101	1.86544	-1688.09021	294.84113	-7.39195	-1708.98669	70.99210	-54.09823	-1753.36426	32.69576	-101.67556	-1554.36438	32.13923	-52.96299	-1563.47388	689.62634	-377.33243	-1548.10681	639.11890	-353.85342	-1594.94592	656.02789	-392.43582	-1572.47864	619.42627	-379.16330	-1650.12842	507.75143	-362.56061	-1691.38232	309.44485	-407.76053	-1664.35596	285.21350	-390.57025	-1723.28015	271.41022	-394.61594	-1700.94580	239.81290	-396.65390	-1689.98462	72.81883	-351.65070	-1744.89319	34.14987	-305.97601	-1544.98438	31.73158	-342.87967	-1593.96155	878.18512	-19.20017	-1593.70081	889.03693	-387.59235	-1721.57263	1022.02661	-162.24767	-1531.58179	995.26489	-312.43442	-1542.09827	996.64001	-85.59927
